<svg xmlns="http://www.w3.org/2000/svg" viewBox="0 0 128 128">
  <!-- Black fox silhouette - no background, transparent -->
  <g transform="translate(64, 64)">
    <!-- Fox body/head - simple clean silhouette -->
    <path d="M-20,-10 C-26,-6 -28,8 -24,18 C-18,26 -12,28 0,28 C12,28 18,26 24,18 C28,8 26,-6 20,-10 C18,-14 14,-16 0,-16 C-14,-16 -18,-14 -20,-10 Z"
          fill="#000000"/>

    <!-- Fox face details - simplified -->
    <ellipse cx="0" cy="6" rx="14" ry="9" fill="#000000"/>

    <!-- Fox ears - simple triangles -->
    <polygon points="-16,-12 -10,-4 -12,-16" fill="#000000"/>
    <polygon points="16,-12 10,-4 12,-16" fill="#000000"/>

    <!-- Fox eyes - simple dots -->
    <circle cx="-6" cy="0" r="2" fill="#000000"/>
    <circle cx="6" cy="0" r="2" fill="#000000"/>

    <!-- Fox nose - simple triangle -->
    <polygon points="-2,9 2,9 0,12" fill="#000000"/>

    <!-- Mouth - simple curve -->
    <path d="M-4,10 Q0,13 4,10" fill="none" stroke="#000000" stroke-width="1" stroke-linecap="round"/>
  </g>
</svg>
