<svg width="256" height="256" viewBox="0 0 256 256" xmlns="http://www.w3.org/2000/svg">
  <!-- Fox Tail -->
  <path d="M80 180 C 40 180, 30 140, 50 120 C 70 95, 110 95, 125 120 C 140 145, 135 180, 100 195 Z"
        fill="#FF8A3C" stroke="#1D2540" stroke-width="4"/>
  <path d="M100 195 C 120 180, 125 155, 118 140 C 103 150, 90 160, 80 180 Z"
        fill="#FFFFFF" stroke="#1D2540" stroke-width="4"/>

  <!-- Fox Body -->
  <path d="M90 110 C 80 135, 75 170, 85 190 L 115 190 C 125 170, 120 135, 110 110 Z"
        fill="#FF8A3C" stroke="#1D2540" stroke-width="4"/>
  <path d="M95 120 C 88 140, 88 170, 95 185 L 108 185 C 115 170, 115 140, 108 120 Z"
        fill="#FFFFFF" stroke="#1D2540" stroke-width="4"/>

  <!-- Fox Legs -->
  <rect x="92" y="185" width="10" height="20" rx="3"
        fill="#173A66" stroke="#1D2540" stroke-width="2"/>
  <rect x="108" y="185" width="10" height="20" rx="3"
        fill="#173A66" stroke="#1D2540" stroke-width="2"/>
  <ellipse cx="85" cy="205" rx="10" ry="6"
           fill="#173A66" stroke="#1D2540" stroke-width="2"/>
  <ellipse cx="120" cy="205" rx="10" ry="6"
           fill="#173A66" stroke="#1D2540" stroke-width="2"/>

  <!-- Fox Head -->
  <g transform="translate(75,60)">
    <path d="M50 0 C 30 0, 15 20, 18 40 C 22 65, 40 80, 50 80 C 60 80, 78 65, 82 40 C 85 20, 70 0, 50 0 Z"
          fill="#FF8A3C" stroke="#1D2540" stroke-width="4"/>
    <path d="M35 40 C 28 45, 25 55, 30 63 C 36 70, 45 73, 50 73 C 55 73, 64 70, 70 63 C 75 55, 72 45, 65 40 Z"
          fill="#FFFFFF" stroke="#1D2540" stroke-width="4"/>
    <circle cx="50" cy="46" r="4" fill="#1D2540"/>
    <path d="M42 56 Q 50 60, 58 56" fill="none" stroke="#1D2540" stroke-width="2" stroke-linecap="round"/>
    <path d="M40 36 Q 44 38, 48 36" fill="none" stroke="#1D2540" stroke-width="2" stroke-linecap="round"/>
    <path d="M52 36 Q 56 38, 60 36" fill="none" stroke="#1D2540" stroke-width="2" stroke-linecap="round"/>

    <!-- Left Ear -->
    <path d="M32 5 L 20 -15 L 15 15 Z"
          fill="#FF8A3C" stroke="#1D2540" stroke-width="3"/>
    <path d="M28 3 L 21 -10 L 18 10 Z"
          fill="#2C9CF0" stroke="#1D2540" stroke-width="2"/>

    <!-- Right Ear -->
    <path d="M68 5 L 80 -15 L 85 15 Z"
          fill="#FF8A3C" stroke="#1D2540" stroke-width="3"/>
    <path d="M72 3 L 79 -10 L 82 10 Z"
          fill="#2C9CF0" stroke="#1D2540" stroke-width="2"/>
  </g>
</svg>

