<svg xmlns="http://www.w3.org/2000/svg" viewBox="0 0 24 24" fill="currentColor">
  <!-- TestFox - Clean Fox Head Icon for Activity Bar -->
  
  <!-- Left ear - pointed and alert -->
  <polygon points="3,2 7,10 2,7"/>
  
  <!-- Right ear - pointed and alert -->
  <polygon points="21,2 22,7 17,10"/>
  
  <!-- Fox face - smooth rounded shape -->
  <path d="M6 9 Q4 13 5 16 Q7 20 12 21 Q17 20 19 16 Q20 13 18 9 L17 10 Q18 13 17 15 Q15 19 12 19 Q9 19 7 15 Q6 13 7 10 Z"/>
  
  <!-- Left eye -->
  <circle cx="9" cy="13" r="2"/>
  
  <!-- Right eye -->
  <circle cx="15" cy="13" r="2"/>
  
  <!-- Nose -->
  <path d="M10 17 L12 19 L14 17 L12 16 Z"/>
</svg>
